<svg width="25" height="24" viewBox="0 0 25 24" fill="none" xmlns="http://www.w3.org/2000/svg">
<g clip-path="url(#clip0_1_457)">
<path fill-rule="evenodd" clip-rule="evenodd" d="M20.5 12.2025C20.5037 12.0675 20.5037 11.9325 20.5 11.7975L21.8988 10.05C22.0475 9.86393 22.099 9.61827 22.0375 9.38813C21.8078 8.52633 21.4648 7.6988 21.0175 6.92719C20.8986 6.72249 20.6901 6.58592 20.455 6.55875L18.2313 6.31125C18.1388 6.21375 18.045 6.12 17.95 6.03L17.6875 3.80063C17.6601 3.56531 17.5232 3.35677 17.3181 3.23813C16.5466 2.79117 15.719 2.4488 14.8572 2.22C14.627 2.15851 14.3814 2.21001 14.1953 2.35875L12.4525 3.75C12.3175 3.75 12.1825 3.75 12.0475 3.75L10.3 2.35406C10.1139 2.20533 9.86827 2.15383 9.63813 2.21531C8.77633 2.44503 7.9488 2.78802 7.17719 3.23531C6.97249 3.35417 6.83592 3.56268 6.80875 3.79781L6.56125 6.02531C6.46375 6.11844 6.37 6.21219 6.28 6.30656L4.05063 6.5625C3.81531 6.58988 3.60677 6.72682 3.48813 6.93188C3.04126 7.70359 2.69859 8.5311 2.46906 9.39281C2.40784 9.6231 2.45969 9.86878 2.60875 10.0547L4 11.7975C4 11.9325 4 12.0675 4 12.2025L2.60406 13.95C2.45533 14.1361 2.40383 14.3817 2.46531 14.6119C2.69503 15.4737 3.03802 16.3012 3.48531 17.0728C3.60417 17.2775 3.81268 17.4141 4.04781 17.4412L6.27156 17.6887C6.36469 17.7862 6.45844 17.88 6.55281 17.97L6.8125 20.1994C6.83988 20.4347 6.97682 20.6432 7.18188 20.7619C7.95359 21.2087 8.7811 21.5514 9.64281 21.7809C9.8731 21.8422 10.1188 21.7903 10.3047 21.6413L12.0475 20.25C12.1825 20.2537 12.3175 20.2537 12.4525 20.25L14.2 21.6488C14.3861 21.7975 14.6317 21.849 14.8619 21.7875C15.7238 21.5582 16.5514 21.2152 17.3228 20.7675C17.5275 20.6486 17.6641 20.4401 17.6912 20.205L17.9387 17.9813C18.0362 17.8888 18.13 17.795 18.22 17.7L20.4494 17.4375C20.6847 17.4101 20.8932 17.2732 21.0119 17.0681C21.4587 16.2964 21.8014 15.4689 22.0309 14.6072C22.0922 14.3769 22.0403 14.1312 21.8913 13.9453L20.5 12.2025ZM12.25 15.75C10.1789 15.75 8.5 14.0711 8.5 12C8.5 9.92893 10.1789 8.25 12.25 8.25C14.3211 8.25 16 9.92893 16 12C16 14.0711 14.3211 15.75 12.25 15.75V15.75Z" fill="#1C0D0D"/>
</g>
<defs>
<clipPath id="clip0_1_457">
<rect width="24" height="24" fill="white" transform="translate(0.25)"/>
</clipPath>
</defs>
</svg>
