<svg width="25" height="24" viewBox="0 0 25 24" fill="none" xmlns="http://www.w3.org/2000/svg">
<g clip-path="url(#clip0_1_70)">
<path fill-rule="evenodd" clip-rule="evenodd" d="M21.75 10.8328V19.5C21.75 20.3284 21.0784 21 20.25 21H16.5C15.6716 21 15 20.3284 15 19.5V15.75C15 15.3358 14.6642 15 14.25 15H11.25C10.8358 15 10.5 15.3358 10.5 15.75V19.5C10.5 20.3284 9.82843 21 9 21H5.25C4.42157 21 3.75 20.3284 3.75 19.5V10.8328C3.74994 10.4131 3.92573 10.0125 4.23469 9.72844L11.7347 2.65219L11.745 2.64188C12.3172 2.1215 13.1912 2.1215 13.7634 2.64188C13.7666 2.64554 13.7701 2.64899 13.7738 2.65219L21.2738 9.72844C21.5796 10.014 21.7522 10.4144 21.75 10.8328V10.8328Z" fill="#1C0D0D"/>
</g>
<defs>
<clipPath id="clip0_1_70">
<rect width="24" height="24" fill="white" transform="translate(0.75)"/>
</clipPath>
</defs>
</svg>
