<svg width="25" height="24" viewBox="0 0 25 24" fill="none" xmlns="http://www.w3.org/2000/svg">
<g clip-path="url(#clip0_1_280)">
<path fill-rule="evenodd" clip-rule="evenodd" d="M16 10.5C16 13.3995 13.6495 15.75 10.75 15.75C7.85051 15.75 5.5 13.3995 5.5 10.5C5.5 7.60051 7.85051 5.25 10.75 5.25C13.6495 5.25 16 7.60051 16 10.5V10.5ZM21.7806 21.5306C21.6399 21.6715 21.4491 21.7506 21.25 21.7506C21.0509 21.7506 20.8601 21.6715 20.7194 21.5306L16.0262 16.8366C12.6358 19.6572 7.62647 19.3124 4.65446 16.0538C1.68245 12.7952 1.79894 7.77538 4.91892 4.65816C8.0389 1.54094 13.0588 1.42888 16.3148 4.40377C19.5708 7.37866 19.9111 12.3883 17.0875 15.7762L21.7806 20.4694C21.9215 20.6101 22.0006 20.8009 22.0006 21C22.0006 21.1991 21.9215 21.3899 21.7806 21.5306V21.5306ZM10.75 17.25C14.4779 17.25 17.5 14.2279 17.5 10.5C17.5 6.77208 14.4779 3.75 10.75 3.75C7.02208 3.75 4 6.77208 4 10.5C4.00413 14.2262 7.02379 17.2459 10.75 17.25V17.25Z" fill="#1C0D0D"/>
</g>
<defs>
<clipPath id="clip0_1_280">
<rect width="24" height="24" fill="white" transform="translate(0.25)"/>
</clipPath>
</defs>
</svg>
